<?xml version="1.0" encoding="iso-8859-1"?>
<!DOCTYPE svg PUBLIC "-//W3C//DTD SVG 1.0//EN" "http://www.w3.org/TR/2001/REC-SVG-20010904/DTD/svg10.dtd">
<!-- Creator: CorelDRAW -->
<svg xmlns="http://www.w3.org/2000/svg" xmlns:odm="http://product.corel.com/CGS/11/cddns/" xml:space="preserve" width="800px" height="356px" style="shape-rendering:geometricPrecision; text-rendering:geometricPrecision; image-rendering:optimizeQuality; fill-rule:evenodd"
     viewBox="0 0 800 356">
 <defs>
  <style type="text/css">
   <![CDATA[
    .fil0 {fill:#313134}
   ]]>
  </style>
 </defs>
 <g id="Ebene 1">
  <g>
   <path class="fil0" d="M777 245l-21 0 0 82 -18 0 0 -82 -21 0 0 -13 60 0 0 13z"/>
   <path class="fil0" d="M680 245l-20 0 0 68c8,0 15,1 23,0 7,-1 14,-4 16,-11 6,-12 7,-30 2,-43 0,-1 -1,-1 -1,-2 -4,-8 -12,-10 -20,-12zm3 -13c6,0 12,2 18,5 19,10 23,34 20,54 -3,16 -12,31 -28,35 -6,1 -13,1 -19,1l-30 0 0 -95 39 0"/>
   <path class="fil0" d="M584 245l0 30c11,0 23,2 31,-5 4,-4 4,-11 3,-16 -2,-5 -6,-8 -11,-9l-23 0zm27 -13c9,1 20,6 23,17 3,8 1,19 -4,25 -4,3 -8,6 -12,7 1,2 3,2 4,3 14,7 8,26 12,39l2 4 -18 0 -1 -4 -2 -20c0,-5 -2,-10 -7,-12l-5 -2 -19 1 0 37 -18 0 1 -95 44 0"/>
   <path class="fil0" d="M536 250l-4 -3c-6,-3 -13,-4 -20,-2 -5,1 -9,4 -11,10 -2,6 -1,13 -2,20l40 0c0,-8 2,-18 -3,-25zm20 77l-17 0 0 -38 -39 0 0 38 -17 0 0 -69c0,-11 8,-20 17,-25 12,-6 29,-4 41,1 5,3 9,7 12,11 2,6 3,11 3,17l0 65"/>
   <path class="fil0" d="M417 296c1,7 2,14 8,17 7,4 18,3 25,-1 3,-3 5,-7 6,-12l0 -68 17 0 0 67c0,10 -5,19 -13,24 -6,4 -12,6 -19,7 -14,0 -29,-2 -37,-15 -4,-6 -3,-14 -4,-22l0 -61 17 0 0 64z"/>
   <path class="fil0" d="M325 253c-4,5 -7,9 -9,16 -5,14 -1,32 12,41 7,4 18,7 26,3 -3,-3 -5,-6 -8,-9l11 -9c3,3 5,7 9,10 9,-11 10,-28 5,-41 -5,-10 -15,-19 -27,-19 -8,0 -15,4 -19,8zm40 -18c17,9 27,27 26,47 -1,14 -5,26 -15,35l8 9c-4,3 -11,9 -11,9 0,0 -5,-7 -8,-10 -13,7 -32,7 -44,-1 -17,-10 -27,-31 -23,-52 3,-18 14,-34 31,-40 10,-4 24,-3 34,2l2 1"/>
   <path class="fil0" d="M267 245l-25 0 0 31 1 0c5,-1 23,2 30,-6 4,-5 5,-12 2,-17 -1,-3 -4,-7 -8,-8zm4 -13c9,1 18,8 21,17 3,9 2,20 -5,27 -3,2 -7,4 -11,6 2,1 5,2 7,4 11,10 5,28 10,41l-17 0c-3,-10 -2,-20 -4,-30 -2,-5 -7,-7 -11,-7l-19 0 0 37 -18 0 0 -95 47 0"/>
   <path class="fil0" d="M195 252c-6,-8 -19,-10 -28,-6 -11,4 -9,18 -9,29l39 0c0,-8 1,-16 -2,-23zm16 -5c2,5 3,11 3,17l0 63 -17 0 0 -37 -39 0 0 37 -17 0 0 -66c0,-13 8,-24 19,-28 12,-5 26,-4 38,1 6,3 10,7 13,13"/>
   <path class="fil0" d="M77 239c-7,-9 -20,-10 -30,-8 -7,1 -11,3 -16,8 -8,9 -8,21 -8,22 0,11 0,66 0,66l17 0c0,0 0,-57 0,-59 0,-6 -1,-10 1,-14 4,-12 23,-10 26,1 3,8 2,34 2,34l16 0c0,0 -1,-26 2,-34 3,-11 21,-13 26,-1 1,4 1,8 1,14 0,2 0,59 0,59l17 0c0,0 0,-55 0,-66 0,-1 0,-13 -8,-22 -5,-5 -9,-7 -16,-8 -10,-2 -23,-1 -30,8l0 0z"/>
   <path class="fil0" d="M429 147c2,6 5,17 5,17 0,0 -75,23 -83,25 -30,-18 -48,-54 -43,-92 4,-22 15,-41 32,-56 22,-18 52,-24 81,-17 24,6 46,23 57,46 15,29 13,72 -9,98 -7,8 -15,15 -25,21 -3,-5 -7,-11 -9,-15 13,-9 26,-22 31,-38 9,-26 2,-57 -18,-76 -10,-10 -18,-16 -34,-20 -15,-2 -32,-1 -45,5 -25,11 -43,37 -44,65 0,23 11,45 29,59l75 -22z"/>
   <path class="fil0" d="M408 111l-19 0 0 -27c0,-2 -3,-5 -5,-7 -4,-2 -9,-2 -12,0 -3,1 -4,3 -5,6 -1,18 -1,46 -1,56l-18 0 0 -58c1,-11 9,-19 19,-22 10,-3 23,-2 30,6 6,-4 13,-8 21,-8l1 0c10,0 20,6 25,15 3,6 4,12 4,18l0 49 -18 0 0 -54c-1,-5 -4,-7 -8,-9 -4,-1 -12,-1 -14,7l0 28z"/>
  </g>
 </g>
</svg>
